#!OML:ASF H:\BabyWalks\Project 1\Capture day 1\Session 1\baby.ASF
:FULLY-SPECIFIED
:DEGREES
637
root 38.8931 17.4125 0.811459 -168.172 88.8932 -169.078
lowerback 22.4221 0.496755 1.93065
upperback 6.47846 1.63405 1.26228
thorax -5.40946 0.986422 -0.191457
lowerneck 2.44766 2.12993 7.84568
upperneck -12.8834 2.21807 -12.6974
head -3.94491 1.5166 -5.33591
rclavicle -1.55052e-014 6.75868e-015
rhumerus -42.029 8.22286 -81.803
rradius 55.3808
rwrist -8.74859
rhand -12.8821 -16.4708
rfingers 7.12502
rthumb 13.2068 -46.0325
lclavicle -1.55052e-014 6.75868e-015
lhumerus -47.096 -8.47887 80.5185
lradius 45.2102
lwrist -2.40667
lhand 9.79776 13.3749
lfingers 7.12502
lthumb 34.9345 39.9462
rfemur -17.2238 8.63832 18.9532
rtibia 31.8684
rfoot -15.0526 4.67165
rtoes 5.44091
lfemur -14.4944 -4.67484 -15.0247
ltibia 32.0558
lfoot -22.6005 -11.3198
ltoes -3.08029
638
root 38.8997 17.4114 0.819773 -165.636 88.8544 -166.595
lowerback 22.4301 0.47173 1.97556
upperback 6.51064 1.61701 1.30024
thorax -5.37883 0.979732 -0.171462
lowerneck 2.47933 2.1352 7.87018
upperneck -12.9968 2.22103 -12.7143
head -3.98319 1.52177 -5.34935
rclavicle -2.82274e-014 -2.3059e-014
rhumerus -42.0277 8.25543 -81.779
rradius 55.6102
rwrist -9.14364
rhand -12.865 -16.3784
rfingers 7.12502
rthumb 13.2233 -45.939
lclavicle -2.82274e-014 -2.3059e-014
lhumerus -47.1114 -8.39449 80.417
lradius 44.9031
lwrist -2.6915
lhand 9.99275 13.4863
lfingers 7.12502
lthumb 35.1195 40.0143
rfemur -17.2628 8.6639 19.0481
rtibia 31.8878
rfoot -15.0905 4.58095
rtoes 5.40036
lfemur -14.5515 -4.63642 -14.9257
ltibia 32.0852
lfoot -22.6603 -11.385
ltoes -3.07369
639
root 38.9056 17.4103 0.82822 -162.374 88.8164 -163.389
lowerback 22.4386 0.45144 2.03753
upperback 6.53565 1.6091 1.33403
thorax -5.35548 0.977096 -0.168168
lowerneck 2.49087 2.13402 7.88827
upperneck -13.0657 2.21705 -12.7211
head -4.00578 1.52154 -5.35671
rclavicle 2.04748e-014 1.59028e-014
rhumerus -42.043 8.24268 -81.7557
rradius 55.7834
rwrist -9.46753
rhand -12.8542 -16.332
rfingers 7.12502
rthumb 13.2338 -45.8919
lclavicle 2.04748e-014 1.59028e-014
lhumerus -47.0914 -8.29007 80.2931
lradius 44.6057
lwrist -2.96107
lhand 10.0786 13.5525
lfingers 7.12502
lthumb 35.2009 40.0614
rfemur -17.3129 8.67732 19.1601
rtibia 31.9072
rfoot -15.1113 4.51866
rtoes 5.39012
lfemur -14.6251 -4.58056 -14.8073
ltibia 32.134
lfoot -22.7172 -11.4568
ltoes -3.07777
640
root 38.911 17.4093 0.836524 -159.211 88.7814 -160.283
lowerback 22.4468 0.437256 2.10478
upperback 6.55459 1.60915 1.35895
thorax -5.33808 0.978024 -0.179586
lowerneck 2.48048 2.12623 7.89895
upperneck -13.0902 2.20584 -12.7176
head -4.01248 1.51577 -5.35761
rclavicle -3.57812e-015 -1.98785e-015
rhumerus -42.0734 8.18318 -81.733
rradius 55.8991
rwrist -9.70624
rhand -12.8606 -16.3387
rfingers 7.12502
rthumb 13.2276 -45.8991
lclavicle -3.57812e-015 -1.98785e-015
lhumerus -47.0382 -8.16295 80.1469
lradius 44.3158
lwrist -3.21292
lhand 10.0427 13.5621
lfingers 7.12502
lthumb 35.1669 40.0791
rfemur -17.3698 8.67293 19.2702
rtibia 31.9293
rfoot -15.1227 4.48602
rtoes 5.39075
lfemur -14.7039 -4.51397 -14.6902
ltibia 32.1899
lfoot -22.7674 -11.5293
ltoes -3.09339
641
root 38.9164 17.4086 0.844578 -156.799 88.7527 -157.926
lowerback 22.454 0.429941 2.16373
upperback 6.56889 1.6149 1.37123
thorax -5.32494 0.981505 -0.201424
lowerneck 2.45845 2.11086 7.90241
upperneck -13.0802 2.18624 -12.701
head -4.00813 1.50419 -5.35169
rclavicle 1.64991e-014 3.18055e-015
rhumerus -42.1168 8.08782 -81.7151
rradius 55.9517
rwrist -9.85558
rhand -12.8933 -16.3958
rfingers 7.12502
rthumb 13.196 -45.9581
lclavicle 1.64991e-014 3.18055e-015
lhumerus -46.9544 -8.00943 79.975
lradius 44.0386
lwrist -3.45448
lhand 9.90684 13.5208
lfingers 7.12502
lthumb 35.038 40.0679
rfemur -17.4293 8.65324 19.3622
rtibia 31.9574
rfoot -15.1319 4.47597
rtoes 5.39589
lfemur -14.776 -4.44796 -14.5921
ltibia 32.2391
lfoot -22.8073 -11.5966
ltoes -3.11272
642
root 38.9216 17.4081 0.852297 -155.357 88.7352 -156.533
lowerback 22.463 0.429656 2.20497
upperback 6.58003 1.62468 1.37056
thorax -5.31612 0.986795 -0.228241
lowerneck 2.43241 2.09094 7.90053
upperneck -13.0458 2.16182 -12.6764
head -3.99658 1.48923 -5.34137
rclavicle 1.8487e-014 -3.57812e-015
rhumerus -42.1669 7.96519 -81.7014
rradius 55.938
rwrist -9.90404
rhand -12.9501 -16.4992
rfingers 7.12502
rthumb 13.1413 -46.0651
lclavicle 1.8487e-014 -3.57812e-015
lhumerus -46.8433 -7.82204 79.7782
lradius 43.7807
lwrist -3.68504
lhand 9.67855 13.4381
lfingers 7.12502
lthumb 34.8214 40.0357
rfemur -17.4875 8.62128 19.4283
rtibia 31.9953
rfoot -15.146 4.48277
rtoes 5.40356
lfemur -14.8308 -4.38943 -14.5218
ltibia 32.2683
lfoot -22.8312 -11.654
ltoes -3.1372
643
root 38.9269 17.4081 0.859549 -155.29 88.7323 -156.507
lowerback 22.473 0.436072 2.21698
upperback 6.58965 1.63551 1.3562
thorax -5.30983 0.992547 -0.253456
lowerneck 2.40763 2.07005 7.8907
upperneck -12.9947 2.13739 -12.6413
head -3.98057 1.4736 -5.32593
rclavicle 2.06736e-014 2.70347e-014
rhumerus -42.2202 7.82562 -81.6916
rradius 55.8578
rwrist -9.85092
rhand -13.0299 -16.6399
rfingers 7.12502
rthumb 13.0644 -46.2108
lclavicle 2.06736e-014 2.70347e-014
lhumerus -46.7099 -7.60478 79.5635
lradius 43.5461
lwrist -3.88266
lhand 9.34933 13.3156
lfingers 7.12502
lthumb 34.5089 39.9849
rfemur -17.5409 8.57841 19.457
rtibia 32.0425
rfoot -15.1666 4.50267
rtoes 5.40837
lfemur -14.8605 -4.34819 -14.492
ltibia 32.2679
lfoot -22.8375 -11.6947
ltoes -3.16292
644
root 38.9322 17.4084 0.866319 -156.837 88.7442 -158.088
lowerback 22.4887 0.448509 2.19239
upperback 6.59535 1.64497 1.32793
thorax -5.31127 0.997465 -0.272634
lowerneck 2.39287 2.04936 7.87786
upperneck -12.9376 2.11417 -12.6008
head -3.96449 1.45844 -5.30832
rclavicle 1.19271e-015 -9.14409e-015
rhumerus -42.2774 7.68088 -81.6875
rradius 55.7129
rwrist -9.70009
rhand -13.1335 -16.8053
rfingers 7.12502
rthumb 12.9645 -46.3825
lclavicle 1.19271e-015 -9.14409e-015
lhumerus -46.5631 -7.36402 79.3378
lradius 43.3461
lwrist -4.02287
lhand 8.93161 13.1758
lfingers 7.12502
lthumb 34.1123 39.9346
rfemur -17.5873 8.52741 19.4424
rtibia 32.0959
rfoot -15.1953 4.53001
rtoes 5.40423
lfemur -14.8635 -4.33067 -14.5082
ltibia 32.234
lfoot -22.8241 -11.7153
ltoes -3.18907
645
root 38.9376 17.4092 0.872795 -159.545 88.7626 -160.82
lowerback 22.5065 0.465141 2.13788
upperback 6.59955 1.65262 1.29169
thorax -5.31599 1.00145 -0.282929
lowerneck 2.38527 2.03123 7.85785
upperneck -12.8763 2.09534 -12.5511
head -3.94819 1.44529 -5.28671
rclavicle 1.39149e-015 1.35174e-014
rhumerus -42.3338 7.53918 -81.6876
rradius 55.5082
rwrist -9.45093
rhand -13.2496 -16.9857
rfingers 7.12502
rthumb 12.8525 -46.57
lclavicle 1.39149e-015 1.35174e-014
lhumerus -46.4071 -7.10415 79.1082
lradius 43.1877
lwrist -4.10097
lhand 8.43077 13.0231
lfingers 7.12502
lthumb 33.6365 39.8868
rfemur -17.622 8.47991 19.3996
rtibia 32.1497
rfoot -15.2291 4.55408
rtoes 5.39238
lfemur -14.8392 -4.33698 -14.5549
ltibia 32.1669
lfoot -22.7949 -11.7161
ltoes -3.21618
646
root 38.9433 17.4106 0.87904 -162.958 88.7806 -164.25
lowerback 22.5265 0.48385 2.06392
upperback 6.60297 1.6584 1.25174
thorax -5.32309 1.00453 -0.28572
lowerneck 2.38903 2.01578 7.83099
upperneck -12.8181 2.0806 -12.4952
head -3.93452 1.43446 -5.26237
rclavicle -1.19271e-014 -8.34896e-015
rhumerus -42.3864 7.40912 -81.6913
rradius 55.2456
rwrist -9.11123
rhand -13.3705 -17.1601
rfingers 7.12502
rthumb 12.736 -46.7517
lclavicle -1.19271e-014 -8.34896e-015
lhumerus -46.2439 -6.83699 78.8835
lradius 43.08
lwrist -4.10193
lhand 7.86521 12.8725
lfingers 7.12502
lthumb 33.0989 39.8518
rfemur -17.6426 8.442 19.3418
rtibia 32.1965
rfoot -15.2639 4.57114
rtoes 5.39108
lfemur -14.7906 -4.3665 -14.6177
ltibia 32.0715
lfoot -22.7532 -11.6976
ltoes -3.24433
647
root 38.9491 17.4123 0.885043 -166.592 88.7937 -167.896
lowerback 22.5434 0.503154 1.98123
upperback 6.60625 1.66278 1.21069
thorax -5.32903 1.00693 -0.284299
lowerneck 2.39658 2.00409 7.79821
upperneck -12.759 2.07122 -12.4347
head -3.92083 1.42637 -5.23577
rclavicle -7.7526e-015 -3.97569e-015
rhumerus -42.4339 7.29609 -81.6984
rradius 54.9334
rwrist -8.68933
rhand -13.4804 -17.3215
rfingers 7.12502
rthumb 12.6301 -46.9197
lclavicle -7.7526e-015 -3.97569e-015
lhumerus -46.0745 -6.57436 78.6702
lradius 43.0263
lwrist -4.02914
lhand 7.24586 12.7334
lfingers 7.12502
lthumb 32.5097 39.8357
rfemur -17.6493 8.41552 19.2808
rtibia 32.2286
rfoot -15.2961 4.57824
rtoes 5.38278
lfemur -14.7259 -4.41808 -14.6843
ltibia 31.9564
lfoot -22.7032 -11.6589
ltoes -3.26815
